<?xml version="1.0" encoding="utf-8"?><svg xml:space="preserve" viewBox="0 0 100 100" y="0" x="0" xmlns="http://www.w3.org/2000/svg" id="圖層_1" version="1.1" width="200px" height="200px" xmlns:xlink="http://www.w3.org/1999/xlink" style="width:100%;height:100%;background-size:initial;background-repeat-y:initial;background-repeat-x:initial;background-position-y:initial;background-position-x:initial;background-origin:initial;background-color:initial;background-clip:initial;background-attachment:initial;animation-play-state:paused" ><g class="ldl-scale" style="transform-origin:50% 50%;transform:rotate(0deg) scale(0.8, 0.8);animation-play-state:paused" ><circle fill="#333" r="40" cy="50" cx="50" style="fill:rgb(68, 103, 120);animation-play-state:paused" ></circle>
<path fill="#fff" d="M69.706 63.59a5.358 5.358 0 0 0-.079-.973c-.01-.061-.024-.121-.049-.229a4.295 4.295 0 0 0-.208-.715 5.374 5.374 0 0 0-1.585-2.256 3.305 3.305 0 0 0-.172-.132l-.052-.041a3.646 3.646 0 0 0-.215-.161c-.485-.327-.99-.69-1.384-1.116a17.582 17.582 0 0 1-.649-.751l-.043-.056a16.122 16.122 0 0 1-.561-.739 5.43 5.43 0 0 1-.107-.157l-.08-.118a11.004 11.004 0 0 1-.524-.816l-.042-.071a13.832 13.832 0 0 1-.488-.89 14.281 14.281 0 0 1-.267-.56l-.037-.081c-.04-.089-.081-.177-.118-.267a14.036 14.036 0 0 1-.243-.628l-.051-.136a7.112 7.112 0 0 1-.063-.169 14.09 14.09 0 0 1-.29-.957 19.758 19.758 0 0 1-.253-1.082 10.68 10.68 0 0 1-.15-.938l-.922-8.57a11.047 11.047 0 0 0-6.455-8.936c.109-.4.172-.819.172-1.253A4.795 4.795 0 0 0 50 26a4.798 4.798 0 0 0-4.793 4.793c0 .434.063.853.172 1.253a11.045 11.045 0 0 0-6.455 8.935l-.922 8.569c-.03.279-.081.594-.15.94-.069.346-.155.709-.252 1.08-.085.324-.183.643-.29.955-.02.058-.041.114-.063.171l-.051.135a10.769 10.769 0 0 1-.362.895l-.036.079c-.086.189-.174.377-.268.563-.059.117-.12.233-.181.349a15.93 15.93 0 0 1-.306.54l-.042.071c-.051.086-.102.173-.155.258-.118.189-.243.374-.368.557l-.08.119a4.93 4.93 0 0 1-.108.158c-.18.251-.367.497-.563.741l-.045.058c-.207.255-.423.503-.639.739-.4.433-.905.795-1.392 1.124a4.06 4.06 0 0 0-.213.159l-.085.065a3.52 3.52 0 0 0-.14.109 5.374 5.374 0 0 0-.932 1.009 3.81 3.81 0 0 0-.121.186 5.507 5.507 0 0 0-.243.409 5.431 5.431 0 0 0-.292.66 4.404 4.404 0 0 0-.082.237c-.048.154-.087.31-.132.517-.014.06-.028.12-.037.178a5.336 5.336 0 0 0-.077.707c-.005.091-.004.183-.003.295-.001.053-.002.106.001.159.115 2.534 2.238 4.519 4.831 4.519H43.5C43.921 71.508 46.672 74 50 74s6.079-2.492 6.5-5.707h8.374c2.594 0 4.716-1.985 4.831-4.518.003-.054.002-.107.001-.185z" style="fill:rgb(255, 255, 255);animation-play-state:paused" ></path>
<metadata xmlns:d="https://loading.io/stock/" style="animation-play-state:paused" ><d:name style="animation-play-state:paused" >alarm</d:name>
<d:tags style="animation-play-state:paused" >alarm,bell,alert,notification,notify,signal,ring,chime,temporal</d:tags>
<d:license style="animation-play-state:paused" >by</d:license>
<d:slug style="animation-play-state:paused" >gdex9e</d:slug></metadata></g><!-- generated by https://loading.io/ --></svg>