<?xml version="1.0" encoding="utf-8"?><svg xml:space="preserve" viewBox="0 0 100 100" y="0" x="0" xmlns="http://www.w3.org/2000/svg" id="圖層_1" version="1.1" width="200px" height="200px" xmlns:xlink="http://www.w3.org/1999/xlink" style="width:100%;height:100%;background-size:initial;background-repeat-y:initial;background-repeat-x:initial;background-position-y:initial;background-position-x:initial;background-origin:initial;background-color:initial;background-clip:initial;background-attachment:initial;animation-play-state:paused" ><g class="ldl-scale" style="transform-origin:50% 50%;transform:rotate(0deg) scale(0.8, 0.8);animation-play-state:paused" ><path d="M53.6 78.2C37.8 80.4 23.3 69.5 21 53.7s8.8-30.3 24.5-32.5c5.7-.8 11.3.1 16.4 2.5l-5.5 9.6 22.7-6.1L73 4.5l-5.6 9.7c-7.2-3.7-15.3-5-23.4-3.9-21.7 3.1-36.9 23.3-33.8 45s23.2 36.9 44.9 33.8c8.8-1.2 16.8-5.3 23-11.7l-7.9-7.6c-4.5 4.6-10.2 7.5-16.6 8.4z" style="fill:rgb(137, 207, 240);animation-play-state:paused" ></path>
<metadata xmlns:d="https://loading.io/stock/" style="animation-play-state:paused" ><d:name style="animation-play-state:paused" >reload</d:name>


<d:tags style="animation-play-state:paused" >refresh,sync,redo,arrow,reload,web application</d:tags>


<d:license style="animation-play-state:paused" >by</d:license>


<d:slug style="animation-play-state:paused" >ggnmz5</d:slug></metadata></g><!-- generated by https://loading.io/ --></svg>