<?xml version="1.0" encoding="utf-8"?>
<svg xml:space="preserve" viewBox="0 0 100 100" y="0" x="0" xmlns="http://www.w3.org/2000/svg" id="圖層_1" version="1.1" style="height: 100%; width: 100%; background: none; shape-rendering: auto;" width="44px" height="44px"><g class="ldl-scale" style="transform-origin: 50% 50%; transform: rotate(0deg) scale(1, 1);"><g class="ldl-ani" style="transform-origin: 50px 50px;"><g class="ldl-layer"><g class="ldl-ani" style="transform-origin: 50px 50px; opacity: 1; animation: 0.497512s linear -0.497512s infinite normal forwards running blink-990e04f6-df6f-4ed0-8671-f22d1f3d2ec8;"><path fill="#e15b64" d="M56.4 75.4c-3.6-3.6-9.3-3.6-12.9 0l6.4 6.4 6.5-6.4z" style="fill: rgb(137, 207, 240);"></path></g></g><g class="ldl-layer"><g class="ldl-ani" style="transform-origin: 50px 50px; opacity: 1; animation: 0.497512s linear -0.435323s infinite normal forwards running blink-990e04f6-df6f-4ed0-8671-f22d1f3d2ec8;"><path fill="#e15b64" d="M62.9 69l6.4-6.4a27.22 27.22 0 0 0-38.6 0l6.4 6.4c7.1-7.1 18.7-7.1 25.8 0z" style="fill: rgb(137, 207, 240);"></path></g></g><g class="ldl-layer"><g class="ldl-ani" style="transform-origin: 50px 50px; opacity: 1; animation: 0.497512s linear -0.373134s infinite normal forwards running blink-990e04f6-df6f-4ed0-8671-f22d1f3d2ec8;"><path fill="#e15b64" d="M75.7 56.1l6.4-6.4c-17.8-17.8-46.5-17.8-64.3 0l6.4 6.4c14.3-14.2 37.3-14.2 51.5 0z" style="fill: rgb(137, 207, 240);"></path></g></g><g class="ldl-layer"><g class="ldl-ani" style="transform-origin: 50px 50px; opacity: 1; animation: 0.497512s linear -0.310945s infinite normal forwards running blink-990e04f6-df6f-4ed0-8671-f22d1f3d2ec8;"><path fill="#f5e6c8" d="M88.6 43.2l6.4-6.4C70.1 12 29.9 12 5 36.8l6.4 6.4C32.7 22 67.3 22 88.6 43.2z" style="fill: rgb(137, 207, 240);"></path></g></g><metadata xmlns:d="https://loading.io/stock/"><d:name>wifi</d:name><d:tags>radio,broadcast,wireless,network,signal,radar,wifi,web application</d:tags><d:license>by</d:license><d:slug>ox1p68</d:slug></metadata></g></g><style id="blink-990e04f6-df6f-4ed0-8671-f22d1f3d2ec8" data-anikit="">@keyframes blink-990e04f6-df6f-4ed0-8671-f22d1f3d2ec8 {
  0% { opacity: 1; }
  49.75% { opacity: 1; }
  50.25% { opacity: 0; }
  99.5% { opacity: 0; }
  100% { opacity: 1; }
}</style><!-- [ldio] generated by https://loading.io/ --></svg>